<svg width="200" height="45" viewBox="0 0 200 45" fill="none" xmlns="http://www.w3.org/2000/svg">
<path d="M17.1353 18.8029C16.7367 16.5957 15.296 13.9287 11.2495 13.9287C6.52858 13.9287 4.65861 17.8832 4.65861 22.2056C4.65861 26.5587 6.52858 30.5132 11.2495 30.5132C15.3266 30.5132 16.89 27.8462 17.1353 25.1792H20.7832C20.2928 30.1147 16.9207 33.64 11.3414 33.64C5.02647 33.64 1.0413 28.8271 1.0413 22.2056C1.0413 15.6148 5.02647 10.8019 11.3414 10.8019C16.89 10.8019 20.2621 14.3272 20.7832 18.8029H17.1353ZM22.2571 33.1802V11.2617H31.6069C36.1132 11.2617 39.0255 13.5609 39.0255 17.546C39.0255 20.6116 37.462 22.3896 34.9483 23.0027V23.064C40.0064 24.0143 38.1671 32.5977 39.332 32.9656V33.1802H35.5001C34.4885 32.2605 36.5424 24.7193 31.2697 24.7193H25.905V33.1802H22.2571ZM25.905 14.3579V21.5925H30.8405C33.0784 21.5925 35.4081 21.1633 35.4081 17.9752C35.4081 14.8177 33.0784 14.3579 30.8405 14.3579H25.905ZM44.437 20.305H55.1357V23.4318H44.437V30.084H56.9444V33.1802H40.7891V11.2617H56.6378V14.3579H44.437V20.305Z" fill="#0074E4"/>
<g filter="url(#filter0_f_6_762)">
<path d="M98.1032 22.6072L98.2844 22.7794V22.7794L98.1032 22.6072ZM98.502 22.1805L98.6861 22.3496C98.7767 22.2509 98.7734 22.0984 98.6787 22.0037L98.502 22.1805ZM98.9007 21.7537L98.7195 21.5815V21.5815L98.9007 21.7537ZM98.502 22.1804L98.3178 22.0113C98.2272 22.1099 98.2305 22.2624 98.3252 22.3572L98.502 22.1804ZM76.3035 34.0103C78.69 34.0103 82.3748 33.1039 86.3575 31.2554C90.3456 29.4045 94.6544 26.5991 98.2844 22.7794L97.922 22.435C94.3422 26.2017 90.088 28.9728 86.1471 30.8019C82.2009 32.6333 78.5907 33.5103 76.3035 33.5103V34.0103ZM61.752 23.576C61.752 26.5333 62.8422 29.156 65.229 31.0327C67.6077 32.9031 71.2458 34.0103 76.3035 34.0103V33.5103C71.31 33.5103 67.7973 32.4161 65.538 30.6397C63.2869 28.8697 62.252 26.4003 62.252 23.576H61.752ZM78.0771 12.7647C73.9586 12.7647 69.8927 13.972 66.8501 15.9166C63.8138 17.8571 61.752 20.5645 61.752 23.576H62.252C62.252 20.806 64.1546 18.2327 67.1193 16.3379C70.0777 14.4472 74.0493 13.2647 78.0771 13.2647V12.7647ZM98.6787 22.0037C93.5542 16.8791 86.3079 12.7647 78.0771 12.7647V13.2647C86.1386 13.2647 93.2648 17.2969 98.3252 22.3572L98.6787 22.0037ZM98.2844 22.7794C98.4193 22.6375 98.5532 22.4943 98.6861 22.3496L98.3178 22.0113C98.1869 22.1539 98.0549 22.2951 97.922 22.435L98.2844 22.7794ZM99.0819 21.9259C102.662 18.1591 106.916 15.388 110.857 13.559C114.803 11.7275 118.413 10.8506 120.7 10.8506V10.3506C118.314 10.3506 114.629 11.257 110.646 13.1055C106.658 14.9564 102.35 17.7618 98.7195 21.5815L99.0819 21.9259ZM98.6861 22.3495C98.817 22.2069 98.949 22.0657 99.0819 21.9259L98.7195 21.5815C98.5846 21.7233 98.4508 21.8666 98.3178 22.0113L98.6861 22.3495ZM118.927 31.0962C110.865 31.0962 103.739 27.064 98.6787 22.0036L98.3252 22.3572C103.45 27.4817 110.696 31.5962 118.927 31.5962V31.0962ZM134.752 20.7848C134.752 23.5549 132.849 26.1282 129.885 28.0229C126.926 29.9137 122.955 31.0962 118.927 31.0962V31.5962C123.045 31.5962 127.111 30.3888 130.154 28.4442C133.19 26.5037 135.252 23.7964 135.252 20.7848H134.752ZM120.7 10.8506C125.694 10.8506 129.207 11.9448 131.466 13.7212C133.717 15.4912 134.752 17.9606 134.752 20.7848H135.252C135.252 17.8276 134.162 15.2048 131.775 13.3281C129.396 11.4578 125.758 10.3506 120.7 10.3506V10.8506Z" fill="url(#paint0_linear_6_762)"/>
</g>
<path d="M98.1003 22.6067L98.6439 23.1234V23.1234L98.1003 22.6067ZM98.499 22.18L99.0513 22.6874C99.3232 22.3914 99.3135 21.9338 99.0294 21.6496L98.499 22.18ZM98.8978 21.7535L98.3541 21.2368V21.2368L98.8978 21.7535ZM98.499 22.1802L97.9467 21.6728C97.6748 21.9688 97.6845 22.4264 97.9687 22.7105L98.499 22.1802ZM76.3005 34.5098C78.7864 34.5098 82.5457 33.5739 86.5651 31.7084C90.6004 29.8356 94.9636 26.9959 98.6439 23.1234L97.5566 22.09C94.0271 25.8039 89.8273 28.5407 85.9336 30.3478C82.0241 32.1623 78.4885 33.0098 76.3005 33.0098V34.5098ZM61.249 23.5755C61.249 26.6658 62.3945 29.4419 64.917 31.4253C67.4153 33.3897 71.1787 34.5098 76.3005 34.5098V33.0098C71.3713 33.0098 67.9838 31.9285 65.8442 30.2461C63.7287 28.5828 62.749 26.2668 62.749 23.5755H61.249ZM78.0741 12.2642C73.8649 12.2642 69.7048 13.4964 66.5779 15.4948C63.47 17.4811 61.249 20.3225 61.249 23.5755H62.749C62.749 21.047 64.4925 18.6078 67.3857 16.7587C70.2598 14.9219 74.1372 13.7642 78.0741 13.7642V12.2642ZM99.0294 21.6496C93.8406 16.4609 86.4742 12.2642 78.0741 12.2642V13.7642C85.9664 13.7642 92.9725 17.7141 97.9687 22.7103L99.0294 21.6496ZM98.6439 23.1234C98.7807 22.9795 98.9165 22.8341 99.0513 22.6874L97.9467 21.6726C97.8176 21.8131 97.6876 21.9522 97.5566 22.09L98.6439 23.1234ZM99.4414 22.2702C102.971 18.5563 107.171 15.8195 111.064 14.0123C114.974 12.1979 118.51 11.3504 120.698 11.3504V9.85042C118.212 9.85042 114.452 10.7863 110.433 12.6517C106.398 14.5246 102.034 17.3643 98.3541 21.2368L99.4414 22.2702ZM99.0513 22.6876C99.1804 22.5471 99.3104 22.408 99.4414 22.2702L98.3541 21.2368C98.2174 21.3807 98.0815 21.526 97.9467 21.6728L99.0513 22.6876ZM118.924 30.596C111.032 30.596 104.026 26.646 99.0294 21.6499L97.9687 22.7105C103.157 27.8993 110.524 32.096 118.924 32.096V30.596ZM134.249 20.7847C134.249 23.3132 132.506 25.7524 129.612 27.6014C126.738 29.4383 122.861 30.596 118.924 30.596V32.096C123.133 32.096 127.293 30.8638 130.42 28.8654C133.528 26.8791 135.749 24.0377 135.749 20.7847H134.249ZM120.698 11.3504C125.627 11.3504 129.014 12.4317 131.154 14.114C133.269 15.7773 134.249 18.0934 134.249 20.7847H135.749C135.749 17.6944 134.604 14.9183 132.081 12.9349C129.583 10.9705 125.819 9.85042 120.698 9.85042V11.3504Z" fill="#0074E4"/>
<path d="M139.933 11.2617H143.581V33.1802H139.933V11.2617ZM144.444 11.2617H148.306L153.886 29.195H153.916L159.496 11.2617H163.358L155.878 33.1802H151.924L144.444 11.2617ZM167.831 20.305H178.53V23.4318H167.831V30.084H180.338V33.1802H164.183V11.2617H180.032V14.3579H167.831V20.305ZM190.154 20.1211C194.845 21.3166 198.401 22.3282 198.401 27.2331C198.401 30.7278 195.764 33.64 190.246 33.64C184.882 33.64 180.804 30.8504 180.59 25.8842H184.238C184.422 28.6739 186.322 30.5132 190.246 30.5132C193.496 30.5132 194.753 29.0724 194.753 27.3863C194.753 24.7807 192.883 24.2902 188.56 23.2172C185.127 22.3589 181.418 21.0407 181.418 16.8716C181.418 12.9784 184.422 10.8019 189.204 10.8019C194.017 10.8019 197.512 13.3156 197.818 17.8219H194.17C193.833 15.2776 192.239 13.9287 189.204 13.9287C186.598 13.9287 185.035 14.9097 185.035 16.5344C185.035 18.9255 187.089 19.3547 190.154 20.1211Z" fill="#0074E4"/>
<defs>
<filter id="filter0_f_6_762" x="57.752" y="6.35059" width="81.5" height="31.6597" filterUnits="userSpaceOnUse" color-interpolation-filters="sRGB">
<feFlood flood-opacity="0" result="BackgroundImageFix"/>
<feBlend mode="normal" in="SourceGraphic" in2="BackgroundImageFix" result="shape"/>
<feGaussianBlur stdDeviation="2" result="effect1_foregroundBlur_6_762"/>
</filter>
<linearGradient id="paint0_linear_6_762" x1="95.0956" y1="4.0598" x2="86.5208" y2="27.3562" gradientUnits="userSpaceOnUse">
<stop stop-color="#0074E4" stop-opacity="0.01"/>
<stop offset="1" stop-color="#0074E4"/>
</linearGradient>
</defs>
</svg>
